<mxfile host="www.draw.io" modified="2019-12-24T08:46:49.120Z" agent="Mozilla/5.0 (Windows NT 10.0; Win64; x64) AppleWebKit/537.36 (KHTML, like Gecko) Chrome/79.0.3945.79 Safari/537.36" etag="_m0IUMTjDztWXbbc3YEn" version="12.4.3" type="github" pages="1">
  <diagram name="Page-1" id="929967ad-93f9-6ef4-fab6-5d389245f69c">
    <mxGraphModel dx="854" dy="436" grid="1" gridSize="10" guides="1" tooltips="1" connect="1" arrows="1" fold="1" page="1" pageScale="1.5" pageWidth="1169" pageHeight="826" background="none" math="0" shadow="0">
      <root>
        <mxCell id="0" style=";html=1;"/>
        <mxCell id="1" style=";html=1;" parent="0"/>
        <mxCell id="ViZuakdQPy_2kgX-TdzH-1" value="" style="ellipse;html=1;shape=startState;fillColor=#000000;strokeColor=#ff0000;" vertex="1" parent="1">
          <mxGeometry x="85" y="290" width="30" height="30" as="geometry"/>
        </mxCell>
        <mxCell id="ViZuakdQPy_2kgX-TdzH-2" value="" style="edgeStyle=orthogonalEdgeStyle;html=1;verticalAlign=bottom;endArrow=open;endSize=8;strokeColor=#ff0000;" edge="1" source="ViZuakdQPy_2kgX-TdzH-1" parent="1">
          <mxGeometry relative="1" as="geometry">
            <mxPoint x="100" y="350" as="targetPoint"/>
          </mxGeometry>
        </mxCell>
        <mxCell id="ViZuakdQPy_2kgX-TdzH-6" value="Load Products" style="rounded=1;whiteSpace=wrap;html=1;arcSize=40;fontColor=#000000;fillColor=#ffffc0;strokeColor=#ff0000;" vertex="1" parent="1">
          <mxGeometry x="40" y="360" width="120" height="30" as="geometry"/>
        </mxCell>
        <mxCell id="ViZuakdQPy_2kgX-TdzH-7" value="" style="edgeStyle=orthogonalEdgeStyle;html=1;verticalAlign=bottom;endArrow=open;endSize=8;strokeColor=#ff0000;" edge="1" source="ViZuakdQPy_2kgX-TdzH-6" parent="1">
          <mxGeometry relative="1" as="geometry">
            <mxPoint x="100" y="430" as="targetPoint"/>
          </mxGeometry>
        </mxCell>
        <mxCell id="ViZuakdQPy_2kgX-TdzH-8" value="Select Products" style="rounded=1;whiteSpace=wrap;html=1;arcSize=40;fontColor=#000000;fillColor=#ffffc0;strokeColor=#ff0000;" vertex="1" parent="1">
          <mxGeometry x="40" y="430" width="120" height="30" as="geometry"/>
        </mxCell>
        <mxCell id="ViZuakdQPy_2kgX-TdzH-9" value="" style="edgeStyle=orthogonalEdgeStyle;html=1;verticalAlign=bottom;endArrow=open;endSize=8;strokeColor=#ff0000;" edge="1" source="ViZuakdQPy_2kgX-TdzH-8" parent="1">
          <mxGeometry relative="1" as="geometry">
            <mxPoint x="100" y="500" as="targetPoint"/>
          </mxGeometry>
        </mxCell>
        <mxCell id="ViZuakdQPy_2kgX-TdzH-10" value="Find Similar Product" style="rounded=1;whiteSpace=wrap;html=1;arcSize=40;fontColor=#000000;fillColor=#ffffc0;strokeColor=#ff0000;" vertex="1" parent="1">
          <mxGeometry x="40" y="500" width="120" height="30" as="geometry"/>
        </mxCell>
        <mxCell id="ViZuakdQPy_2kgX-TdzH-11" value="" style="edgeStyle=orthogonalEdgeStyle;html=1;verticalAlign=bottom;endArrow=open;endSize=8;strokeColor=#ff0000;" edge="1" source="ViZuakdQPy_2kgX-TdzH-10" parent="1">
          <mxGeometry relative="1" as="geometry">
            <mxPoint x="100" y="560" as="targetPoint"/>
          </mxGeometry>
        </mxCell>
        <mxCell id="ViZuakdQPy_2kgX-TdzH-22" value="Similar Found" style="rhombus;whiteSpace=wrap;html=1;fillColor=#ffffc0;strokeColor=#ff0000;fontSize=10;" vertex="1" parent="1">
          <mxGeometry x="55" y="560" width="90" height="55" as="geometry"/>
        </mxCell>
        <mxCell id="ViZuakdQPy_2kgX-TdzH-23" value="no" style="edgeStyle=orthogonalEdgeStyle;html=1;align=left;verticalAlign=bottom;endArrow=open;endSize=8;strokeColor=#ff0000;entryX=0.442;entryY=-0.025;entryDx=0;entryDy=0;entryPerimeter=0;" edge="1" source="ViZuakdQPy_2kgX-TdzH-22" parent="1" target="ViZuakdQPy_2kgX-TdzH-30">
          <mxGeometry x="-1" relative="1" as="geometry">
            <mxPoint x="240" y="580" as="targetPoint"/>
          </mxGeometry>
        </mxCell>
        <mxCell id="ViZuakdQPy_2kgX-TdzH-24" value="yes" style="edgeStyle=orthogonalEdgeStyle;html=1;align=left;verticalAlign=top;endArrow=open;endSize=8;strokeColor=#ff0000;" edge="1" source="ViZuakdQPy_2kgX-TdzH-22" parent="1">
          <mxGeometry x="-1" relative="1" as="geometry">
            <mxPoint x="100" y="650" as="targetPoint"/>
          </mxGeometry>
        </mxCell>
        <mxCell id="ViZuakdQPy_2kgX-TdzH-25" value="Mark Similar" style="rounded=1;whiteSpace=wrap;html=1;arcSize=40;fontColor=#000000;fillColor=#ffffc0;strokeColor=#ff0000;" vertex="1" parent="1">
          <mxGeometry x="40" y="650" width="120" height="30" as="geometry"/>
        </mxCell>
        <mxCell id="ViZuakdQPy_2kgX-TdzH-26" value="" style="edgeStyle=orthogonalEdgeStyle;html=1;verticalAlign=bottom;endArrow=open;endSize=8;strokeColor=#ff0000;fontSize=10;" edge="1" source="ViZuakdQPy_2kgX-TdzH-25" parent="1">
          <mxGeometry relative="1" as="geometry">
            <mxPoint x="100" y="710" as="targetPoint"/>
          </mxGeometry>
        </mxCell>
        <mxCell id="ViZuakdQPy_2kgX-TdzH-27" value="Upload to CartRight" style="rounded=1;whiteSpace=wrap;html=1;arcSize=40;fontColor=#000000;fillColor=#ffffc0;strokeColor=#ff0000;" vertex="1" parent="1">
          <mxGeometry x="40" y="710" width="120" height="40" as="geometry"/>
        </mxCell>
        <mxCell id="ViZuakdQPy_2kgX-TdzH-28" value="" style="edgeStyle=orthogonalEdgeStyle;html=1;verticalAlign=bottom;endArrow=open;endSize=8;strokeColor=#ff0000;fontSize=10;" edge="1" source="ViZuakdQPy_2kgX-TdzH-27" parent="1">
          <mxGeometry relative="1" as="geometry">
            <mxPoint x="100" y="780" as="targetPoint"/>
          </mxGeometry>
        </mxCell>
        <mxCell id="ViZuakdQPy_2kgX-TdzH-29" value="" style="ellipse;html=1;shape=endState;fillColor=#000000;strokeColor=#ff0000;fontSize=10;" vertex="1" parent="1">
          <mxGeometry x="85" y="780" width="30" height="30" as="geometry"/>
        </mxCell>
        <mxCell id="ViZuakdQPy_2kgX-TdzH-30" value="Create as New" style="rounded=1;whiteSpace=wrap;html=1;arcSize=40;fontColor=#000000;fillColor=#ffffc0;strokeColor=#ff0000;" vertex="1" parent="1">
          <mxGeometry x="210" y="615" width="120" height="40" as="geometry"/>
        </mxCell>
        <mxCell id="ViZuakdQPy_2kgX-TdzH-31" value="" style="edgeStyle=orthogonalEdgeStyle;html=1;verticalAlign=bottom;endArrow=open;endSize=8;strokeColor=#ff0000;fontSize=10;entryX=1;entryY=0.5;entryDx=0;entryDy=0;" edge="1" source="ViZuakdQPy_2kgX-TdzH-30" parent="1" target="ViZuakdQPy_2kgX-TdzH-27">
          <mxGeometry relative="1" as="geometry">
            <mxPoint x="270" y="715" as="targetPoint"/>
          </mxGeometry>
        </mxCell>
      </root>
    </mxGraphModel>
  </diagram>
</mxfile>
